<?xml version="1.0" standalone="no"?><!DOCTYPE svg PUBLIC "-//W3C//DTD SVG 1.1//EN" "http://www.w3.org/Graphics/SVG/1.1/DTD/svg11.dtd"><svg t="1607413393026" class="icon" viewBox="0 0 1024 1024" version="1.1" xmlns="http://www.w3.org/2000/svg" p-id="1372" xmlns:xlink="http://www.w3.org/1999/xlink" width="200" height="200"><defs><style type="text/css"></style></defs><path d="M891.3 252.1l-16.1 11c50.1 73.2 76.6 158.9 76.6 247.9 0 242.2-197.1 439.3-439.3 439.3S73.3 753.3 73.3 511c0-242.2 197.1-439.3 439.3-439.3 113.1 0 220.6 42.9 302.5 120.8l13.4-14.2C742.9 97 630.7 52.2 512.5 52.2c-61.9 0-122 12.1-178.6 36.1-54.6 23.1-103.7 56.2-145.8 98.3s-75.2 91.2-98.3 145.8c-23.9 56.6-36 116.7-36 178.6 0 61.9 12.1 122 36.1 178.6 23.1 54.6 56.2 103.7 98.3 145.8s91.2 75.2 145.8 98.3c56.6 23.9 116.7 36.1 178.6 36.1s122-12.1 178.6-36.1c54.6-23.1 103.7-56.2 145.8-98.3s75.2-91.2 98.3-145.8c23.9-56.6 36.1-116.7 36.1-178.6-0.1-93-27.7-182.5-80.1-258.9z" fill="#36ab60" p-id="1373"></path><path d="M614.6 718.1h39.1c35.4 0.5 56.1-16 62-49.3 3.3-19.2 6.4-43.3 9.3-72.2-9.9-2.4-18.7-5.2-26.5-8.3-1.6 27.2-3.7 49.8-6.4 67.9-3.3 25.7-16.6 38.1-39.8 37.2h-33.8c-23.7 1-34.9-8.5-33.6-28.4V434.5h130.8v-24.8H529.1c2.1-37 3.1-80 3.1-128.9h-26.4c0 46.6-1 89.5-2.9 128.9H395.4v24.8H501c-0.6 10-1.2 18.2-1.7 24.5-4 96.3-44.4 181.5-121.3 255.7 6.3 5.1 13.5 11.6 21.4 19.5C477.6 657 519.7 566 525.7 461.5c0.2-2.9 0.5-7.1 1-12.9 0.5-6.2 0.8-10.9 1-14.1h31.2v230c-1 36.7 17.6 54.6 55.7 53.6z" fill="#36ab60" p-id="1374"></path><path d="M613.3 335c25.2 19.4-1.6 0.3 21.6 20.3l18.1-20c-10.5-8.6-13.5-11.2-14.1-11.8-0.3-0.1-2-1.1-9.6-6.4l-16 17.9zM353.4 735.3v-332c18-36.5 33.8-74.4 47.4-113.7l-27.4-9.3c-23 79.1-60 152.7-110.8 220.7 4.9 9.5 9.1 19.5 12.6 29.8 20.2-26.4 37.7-52.6 52.4-78.6v283.1h25.8zM638.9 323.5c0.2 0.1-0.5-0.5 0 0z" fill="#36ab60" p-id="1375"></path></svg>